<svg xmlns="http://www.w3.org/2000/svg" viewBox="0 0 256 256" role="img" aria-label="LJGM icon">
  <defs>
    <linearGradient id="bg" x1="0" y1="0" x2="1" y2="1">
      <stop offset="0%" stop-color="#0f172a" />
      <stop offset="100%" stop-color="#1f2937" />
    </linearGradient>
    <linearGradient id="pad" x1="0" y1="0" x2="1" y2="1">
      <stop offset="0%" stop-color="#22d3ee" />
      <stop offset="100%" stop-color="#0284c7" />
    </linearGradient>
  </defs>
  <rect width="256" height="256" rx="52" fill="url(#bg)"/>
  <path d="M58 148c0-33 19-56 70-56s70 23 70 56c0 25-16 44-39 44-18 0-23-12-31-12s-13 12-31 12c-23 0-39-19-39-44z" fill="url(#pad)"/>
  <rect x="88" y="130" width="32" height="10" rx="4" fill="#e2e8f0"/>
  <rect x="99" y="119" width="10" height="32" rx="4" fill="#e2e8f0"/>
  <circle cx="158" cy="126" r="8" fill="#f8fafc"/>
  <circle cx="178" cy="140" r="8" fill="#f8fafc"/>
  <circle cx="158" cy="154" r="8" fill="#f8fafc"/>
  <circle cx="138" cy="140" r="8" fill="#f8fafc"/>
  <text x="128" y="214" text-anchor="middle" font-size="22" font-family="DejaVu Sans, sans-serif" fill="#cbd5e1">LJGM</text>
</svg>
